<svg width="46" height="46" viewBox="0 0 46 46" fill="none" xmlns="http://www.w3.org/2000/svg">
<path d="M0 9.67063C0 4.32969 4.32969 0 9.67062 0H35.459C40.7999 0 45.1296 4.32969 45.1296 9.67062V35.459C45.1296 40.7999 40.7999 45.1296 35.459 45.1296H9.67063C4.32969 45.1296 0 40.7999 0 35.459V9.67063Z" fill="url(#paint0_linear_25_2)"/>
<path d="M22.4355 12.894C25.0703 10.2592 29.3421 10.2592 31.9769 12.894C34.6116 15.5287 34.6116 19.8005 31.9768 22.4353L22.4355 31.9767C19.8007 34.6114 15.5289 34.6114 12.8942 31.9767C10.2594 29.3419 10.2594 25.0701 12.8942 22.4353L22.4355 12.894Z" fill="url(#paint1_linear_25_2)"/>
<defs>
<linearGradient id="paint0_linear_25_2" x1="45" y1="2.83182e-06" x2="3.5" y2="42.5" gradientUnits="userSpaceOnUse">
<stop stop-color="white" stop-opacity="0"/>
<stop offset="1" stop-color="white" stop-opacity="0.65"/>
</linearGradient>
<linearGradient id="paint1_linear_25_2" x1="31.9769" y1="12.894" x2="12.6365" y2="32.042" gradientUnits="userSpaceOnUse">
<stop stop-color="#1E1E1E"/>
<stop offset="1" stop-color="#1E1E1E" stop-opacity="0.5"/>
</linearGradient>
</defs>
</svg>
