<svg width="412" height="83" viewBox="0 0 412 83" fill="none" xmlns="http://www.w3.org/2000/svg">
<path d="M0 17.708C0 7.92814 7.92814 0 17.708 0H64.9293C74.7091 0 82.6373 7.92814 82.6373 17.708V64.9293C82.6373 74.7091 74.7091 82.6373 64.9293 82.6373H17.708C7.92814 82.6373 0 74.7091 0 64.9293V17.708Z" fill="white"/>
<path d="M41.0816 23.6103C45.9061 18.7858 53.7283 18.7858 58.5528 23.6103C63.3774 28.4349 63.3774 36.257 58.5528 41.0816L41.0816 58.5529C36.257 63.3774 28.4349 63.3774 23.6103 58.5529C18.7857 53.7283 18.7857 45.9062 23.6103 41.0816L41.0816 23.6103Z" fill="url(#paint0_linear_7_12)"/>
<path d="M383.798 69.917C377.935 69.917 372.895 68.7177 368.68 66.319C364.488 63.8962 361.253 60.5284 358.976 56.2158C356.723 51.8789 355.596 46.8515 355.596 41.1336C355.596 35.3914 356.723 30.364 358.976 26.0514C361.253 21.7145 364.488 18.3467 368.68 15.9481C372.895 13.5253 377.935 12.3138 383.798 12.3138C389.661 12.3138 394.689 13.5253 398.88 15.9481C403.096 18.3467 406.331 21.7145 408.584 26.0514C410.861 30.364 412 35.3914 412 41.1336C412 46.8515 410.861 51.8789 408.584 56.2158C406.331 60.5284 403.096 63.8962 398.88 66.319C394.689 68.7177 389.661 69.917 383.798 69.917ZM383.907 56.5065C386.039 56.5065 387.844 55.8524 389.322 54.544C390.8 53.2357 391.927 51.4186 392.702 49.0926C393.502 46.7667 393.901 44.0773 393.901 41.0245C393.901 37.9233 393.502 35.2097 392.702 32.8838C391.927 30.5579 390.8 28.7407 389.322 27.4324C387.844 26.1241 386.039 25.4699 383.907 25.4699C381.702 25.4699 379.837 26.1241 378.31 27.4324C376.808 28.7407 375.657 30.5579 374.858 32.8838C374.082 35.2097 373.695 37.9233 373.695 41.0245C373.695 44.0773 374.082 46.7667 374.858 49.0926C375.657 51.4186 376.808 53.2357 378.31 54.544C379.837 55.8524 381.702 56.5065 383.907 56.5065Z" fill="#FFFBFB"/>
<path d="M317.564 68.8631V13.0407H334.826V23.2167H335.408C336.425 19.5339 338.085 16.7961 340.387 15.0032C342.688 13.1861 345.366 12.2775 348.418 12.2775C349.242 12.2775 350.09 12.3381 350.962 12.4592C351.835 12.5562 352.646 12.7136 353.397 12.9317V28.3773C352.549 28.0866 351.435 27.8564 350.054 27.6868C348.697 27.5172 347.486 27.4324 346.42 27.4324C344.312 27.4324 342.41 27.9049 340.714 28.8498C339.042 29.7705 337.722 31.0667 336.752 32.7384C335.808 34.386 335.335 36.3243 335.335 38.5533V68.8631H317.564Z" fill="#FFFBFB"/>
<path d="M310.749 13.0407L291.597 68.863H271.245L252.129 13.0407H270.845L281.13 51.4912H281.711L292.033 13.0407H310.749Z" fill="#FFFBFB"/>
<path d="M214.369 69.8079C210.807 69.8079 207.645 69.2143 204.883 68.0271C202.145 66.8157 199.977 64.9986 198.378 62.5758C196.803 60.1287 196.016 57.0638 196.016 53.3811C196.016 50.2798 196.561 47.6631 197.651 45.531C198.741 43.3989 200.243 41.6666 202.157 40.334C204.071 39.0015 206.276 37.996 208.772 37.3176C211.267 36.615 213.932 36.1425 216.767 35.9002C219.941 35.6095 222.497 35.3066 224.435 34.9917C226.374 34.6525 227.779 34.18 228.651 33.5743C229.548 32.9444 229.996 32.06 229.996 30.9213V30.7396C229.996 28.874 229.354 27.4324 228.07 26.4148C226.786 25.3972 225.053 24.8884 222.873 24.8884C220.523 24.8884 218.633 25.3972 217.203 26.4148C215.774 27.4324 214.865 28.8376 214.478 30.6305L198.087 30.0491C198.572 26.6571 199.819 23.6285 201.83 20.9634C203.866 18.274 206.652 16.1662 210.189 14.6398C213.751 13.0892 218.027 12.3138 223.018 12.3138C226.58 12.3138 229.863 12.7378 232.867 13.5858C235.871 14.4096 238.488 15.621 240.717 17.2201C242.946 18.795 244.666 20.7332 245.878 23.0349C247.113 25.3366 247.731 27.9654 247.731 30.9213V68.863H231.013V61.0857H230.577C229.584 62.9755 228.312 64.5746 226.761 65.8829C225.235 67.1913 223.43 68.1725 221.346 68.8267C219.287 69.4809 216.961 69.8079 214.369 69.8079ZM219.856 58.1783C221.77 58.1783 223.491 57.7906 225.017 57.0153C226.568 56.24 227.803 55.174 228.724 53.8172C229.645 52.4361 230.105 50.8371 230.105 49.0199V43.7139C229.596 43.9804 228.978 44.2227 228.251 44.4408C227.549 44.6588 226.774 44.8648 225.926 45.0586C225.078 45.2524 224.205 45.422 223.309 45.5674C222.412 45.7127 221.552 45.846 220.729 45.9671C219.057 46.2337 217.627 46.6455 216.44 47.2028C215.277 47.7601 214.381 48.4869 213.751 49.3834C213.145 50.2556 212.842 51.2974 212.842 52.5088C212.842 54.3502 213.496 55.7554 214.805 56.7246C216.137 57.6937 217.821 58.1783 219.856 58.1783Z" fill="#FFFBFB"/>
<path d="M103.887 68.863V13.0407H120.786V23.2893H121.404C122.567 19.8973 124.529 17.2201 127.292 15.2576C130.054 13.2951 133.349 12.3138 137.177 12.3138C141.053 12.3138 144.373 13.3072 147.135 15.2939C149.897 17.2807 151.653 19.9458 152.404 23.2893H152.986C154.028 19.97 156.063 17.317 159.091 15.3303C162.12 13.3193 165.694 12.3138 169.812 12.3138C175.094 12.3138 179.383 14.0098 182.678 17.4018C185.973 20.7696 187.62 25.3972 187.62 31.2847V68.863H169.849V35.3551C169.849 32.5688 169.134 30.4488 167.705 28.9951C166.275 27.5172 164.422 26.7782 162.144 26.7782C159.697 26.7782 157.771 27.5778 156.366 29.1768C154.985 30.7517 154.294 32.8717 154.294 35.5368V68.863H137.213V35.1734C137.213 32.5809 136.51 30.5336 135.105 29.0315C133.7 27.5293 131.846 26.7782 129.545 26.7782C127.994 26.7782 126.625 27.1538 125.438 27.9048C124.251 28.6317 123.318 29.6735 122.64 31.0303C121.985 32.3871 121.658 33.9862 121.658 35.8275V68.863H103.887Z" fill="#FFFBFB"/>
<defs>
<linearGradient id="paint0_linear_7_12" x1="58.5528" y1="23.6103" x2="23.1384" y2="58.6724" gradientUnits="userSpaceOnUse">
<stop stop-color="#1E1E1E"/>
<stop offset="1" stop-color="#1E1E1E" stop-opacity="0"/>
</linearGradient>
</defs>
</svg>
